<?xml version="1.0" encoding="UTF-8"?>
<svg id="Laag_1" data-name="Laag 1" xmlns="http://www.w3.org/2000/svg" viewBox="0 0 1087.68 202.23">
  <defs>
    <style>
      .cls-1 {
        fill: #646463;
      }

      .cls-1, .cls-2, .cls-3, .cls-4, .cls-5, .cls-6 {
        isolation: isolate;
      }

      .cls-7 {
        fill: #d8dada;
      }

      .cls-2, .cls-6 {
        fill: #757577;
      }

      .cls-8 {
        fill: #afafb2;
      }

      .cls-9 {
        fill: #727173;
      }

      .cls-10, .cls-3 {
        fill: #b0b0b3;
      }

      .cls-11 {
        fill: #79b551;
      }

      .cls-12 {
        fill: #89c05f;
      }

      .cls-3 {
        opacity: .86;
      }

      .cls-3, .cls-4, .cls-13, .cls-14, .cls-5, .cls-6 {
        fill-rule: evenodd;
      }

      .cls-15 {
        fill: #f2f2f3;
      }

      .cls-4 {
        fill: #d7d9d9;
        opacity: 1;
      }

      .cls-13 {
        fill: #797a7a;
      }

      .cls-14 {
        fill: #afb3b0;
      }

      .cls-16 {
        fill: #d9dbdb;
      }

      .cls-5 {
        fill: #f0f0f1;
        opacity: .87;
      }

      .cls-6 {
        opacity: .87;
      }
    </style>
  </defs>
  <g>
    <g>
      <path class="cls-11" d="m79.08,10.86c-22.84,2.42-43.59,10.1-62.27,23.04-1.16,69.09,27.06,122.22,84.66,159.39V9.4c-7.35,0-14.82.49-22.4,1.46Z"/>
      <path class="cls-12" d="m101.03,9.4v183.89s.01,0,.02.01c56.32-37.91,84.55-91.04,84.68-159.4-26.32-16.35-54.55-24.51-84.7-24.5Z"/>
      <path class="cls-5" d="m188,32.43c-1.24-.21-2.06.2-2.49,1.25C152.77,13.33,117.07,5.65,78.41,10.63c-22.84,2.42-43.59,10.1-62.27,23.04-.83-.83-1.66-1.66-2.49-2.49C61.25-6.52,152.61,1.53,188,32.43Z"/>
      <path class="cls-4" d="m78.41,10.64c-22.84,2.42-43.59,10.1-62.27,23.04-1.16,69.1,27.07,122.23,84.68,159.4,56.32-37.91,84.55-91.04,84.68-159.4C152.77,13.33,117.07,5.65,78.41,10.64Zm22.41,171.23c-11.65-9.04-23.6-19.11-33.76-30.21C39.5,118.86,25.96,80.95,26.44,37.94h0c23.63-13.03,48.51-19.34,74.65-18.93,26.14-.16,50.96,6.39,74.46,19.64h0,0c.07,43.02-13.84,80.8-41.72,113.33-10.27,11-21.27,20.96-33,29.89Z"/>
      <path class="cls-6" d="m13.65,31.18c.83.83,1.66,1.66,2.49,2.49-1.16,69.1,27.07,122.23,84.68,159.4v4.98C40.14,158.87,11.08,103.25,13.65,31.18Z"/>
      <path class="cls-3" d="m188,32.43c2.02,60.55-19.98,110.57-66,150.06-6.9,5.46-13.96,10.65-21.17,15.57v-4.98c56.32-37.91,84.55-91.04,84.68-159.4.43-1.04,1.26-1.46,2.49-1.25Z"/>
      <path class="cls-13" d="m178.03,36.17c0,1.66-.83,2.49-2.49,2.49h0c-23.5-13.25-48.32-19.8-74.46-19.64-26.14-.41-51.02,5.9-74.65,18.92h0c-1.63-.01-2.46-.84-2.46-2.46v-.05c23.86-13.71,49.57-20.12,77.13-19.25,27.56-.61,53.21,6.05,76.94,19.99Z"/>
      <path class="cls-14" d="m100.82,184.36v-2.49c11.73-8.92,22.73-18.88,33-29.89,27.88-32.53,41.78-70.31,41.72-113.32h0s2.49-2.49,2.49-2.49c.93,63.32-24.81,112.72-77.21,148.19Z"/>
      <path class="cls-14" d="m100.82,181.87v2.49C48.78,148.39,22.45,98.75,23.97,35.48v-.05l2.46,2.51h0c-.48,43.02,13.07,80.92,40.63,113.72,10.16,11.1,22.12,21.17,33.76,30.21Z"/>
    </g>
    <g>
      <g>
        <rect class="cls-7" x="73.67" y="77.25" width="54.04" height="57.12"/>
        <path class="cls-15" d="m124.31,54.19v19.79h-11.64v-19.79c0-8.44-23.1-8.07-23.1,0v19.79h-11.64v-19.79c0-24.92,46.38-25.92,46.38,0Z"/>
        <path class="cls-10" d="m83.2,54.19v23.82h6.37v-23.82c0-8.11,23.1-8.42,23.1,0v23.82h6.38v-23.82c0-19.16-35.85-17.76-35.85,0Z"/>
        <path class="cls-9" d="m86.94,54.19v21.84h2.63v-21.84c0-8.11,23.1-8.42,23.1,0v21.84h2.63v-21.84c0-11.73-28.36-11.73-28.36,0Z"/>
        <path class="cls-16" d="m124.75,81.31c.55.55.86,1.29.86,2.06l.03,46.16c0,1.11-.62,2.08-1.53,2.57l6.01,5.59c1.29-1.21,2.11-2.92,2.11-4.83v-53.31c0-1.75-.69-3.35-1.8-4.53l-6.04,5.96c.14.1.27.2.39.32Z"/>
        <path class="cls-15" d="m79.91,80.48l42.78-.02c.61,0,1.19.19,1.68.53l6.04-5.96c-1.2-1.28-2.91-2.08-4.8-2.08h-49.2c-1.99,0-3.76.88-4.97,2.27l6.64,5.91c.5-.41,1.14-.65,1.83-.65Z"/>
        <path class="cls-9" d="m124.1,132.1c-.41.22-.88.35-1.39.35l-42.78.02c-.76,0-1.49-.3-2.04-.83l-6.17,6.46c.98.85,2.25,1.36,3.64,1.36h50.24c1.74,0,3.32-.68,4.5-1.78l-6.01-5.59Z"/>
        <path class="cls-10" d="m77.87,131.62c-.55-.55-.86-1.29-.86-2.06l-.03-46.16c0-.92.42-1.74,1.09-2.27l-6.64-5.91c-1.01,1.16-1.63,2.68-1.63,4.34v54.34c0,1.68.75,3.19,1.93,4.21l6.17-6.46s-.02-.02-.03-.03Z"/>
        <polygon class="cls-15" points="76.99 83.2 125.7 107.34 125.7 119.32 77.02 93.74 76.99 83.2"/>
        <polygon class="cls-15" points="77 98.19 125.7 122.65 125.74 129.66 76.97 104.91 77 98.19"/>
      </g>
      <g>
        <path class="cls-1" d="m106.28,103.29c-.28.29-.58.56-.88.8v18.02h-9.67v-17.72c-.45-.32-.88-.68-1.28-1.1-3.27-3.42-3.27-8.97,0-12.38,3.27-3.42,8.56-3.42,11.83,0,3.26,3.42,3.26,8.96,0,12.38Z"/>
        <path class="cls-2" d="m107.57,103.36c-.28.29-.58.56-.88.8v18.02h-9.67v-17.72c-.45-.32-.88-.68-1.28-1.1-3.27-3.42-3.27-8.97,0-12.38,3.27-3.42,8.56-3.42,11.83,0,3.26,3.42,3.26,8.96,0,12.38Z"/>
      </g>
    </g>
  </g>
  <g>
    <path class="cls-11" d="m267.82,117.07c-2.81,5.89-8.1,9.48-14.18,11.54-8.5,2.87-23.14,2.75-38.18-3.92v-11.72h.66c7.31,6.08,17.54,9.27,25.48,9.27,8.86,0,18.39-3.1,18.39-11.96,0-11-9.94-10.25-25.72-13.47-11.12-2.36-18.39-7.92-18.39-19.29,0-20.53,28.9-24.85,51.01-15.22v11.06h-.66c-8.52-7.21-26.95-11-36.05-4.77-5.95,4.07-5.41,11.5-2.29,14.94,3.21,3.54,10.75,4.45,16.59,5.44,7.44,1.26,16.14,2.78,21.27,8.23,2.65,2.81,5.44,12.81,2.06,19.9Z"/>
    <path class="cls-11" d="m322.68,129.03h-8.84v-5.63c-4.78,3.25-9.08,7.09-18.96,7.09-9.21,0-17.07-6.63-17.07-16.78,0-17.8,18.24-18.7,36.02-19.57,0-7.11-1.97-11.35-14.18-11.35-5.42,0-11.64,1.67-16.69,3.59h-.47v-9.03c9.74-2.65,25.93-4.34,34.09,1.65,4.62,3.38,6.1,8.46,6.1,14.18v35.83Zm-8.84-13v-14.7c-12.12.71-26.85.67-26.85,11.77,0,6.72,4.47,9.12,11.11,9.12,3.12,0,5.97-.61,8.56-1.82,2.58-1.21,4.98-2.67,7.19-4.37Z"/>
    <path class="cls-11" d="m365.78,64.07h-.47c-1.91-.55-5.57-1.32-7.99-1.32-9.64,0-10.87,4.82-10.87,13.47h16.03v7.47h-15.74v45.34h-8.89v-45.34h-6v-7.47h6c0-18.41,9.85-23.71,27.94-20.28v8.13Z"/>
    <path class="cls-11" d="m413.19,103.55h-38.91c0,23.97,27.37,21.58,37.39,12.58h.47v9.69c-18.76,7.91-32.55,4.05-39.52-2.67-9.99-9.64-9.75-30.6-.31-40.77,9.64-10.39,27.43-9.62,35.08-1.37,6.04,6.51,5.79,14.85,5.79,22.55Zm-8.65-6.81c-.06-9.3-4.6-14.66-14.09-14.66s-15.43,6.51-16.17,14.66h30.26Z"/>
    <path class="cls-11" d="m483.67,123.83c-13.22,6.07-27.08,8.88-40.89,4.3-26.89-8.9-26.99-46.15-11.98-61.01,12.98-12.85,34.95-11.96,52.83-3.43v11.11h-.85c-21.99-17.01-52.1-11.87-52.1,18.67,0,21.83,14.56,32.16,35.81,27.94,3.01-.6,5.65-1.37,7.92-2.32v-17.26h-18.86v-8.23h28.13v30.21Z"/>
    <path class="cls-11" d="m540.67,129.03h-8.89v-5.86c-5.61,4.43-10.76,7.33-17.68,7.33-11.94,0-17.59-7.87-17.59-20v-34.27h8.89c0,34.19-1.4,41.75,5.3,44.86,6.44,3,15.21-.81,21.08-5.44v-39.43h8.89v52.81Z"/>
    <path class="cls-11" d="m596.78,129.03h-8.84v-5.63c-4.78,3.25-9.08,7.09-18.96,7.09-18.69,0-23.66-24.98-7.14-32.34,7-3.09,17.39-3.59,26.1-4.02,0-3.84-.28-7.31-4.11-9.5-6.55-3.76-18.84-1.27-26.76,1.75h-.47v-9.03c1.73-.47,4.24-.99,7.52-1.56,16.99-2.94,32.67.07,32.67,17.4v35.83Zm-8.84-13v-14.7c-12.12.71-26.85.67-26.85,11.77,0,6.72,4.47,9.12,11.11,9.12,3.12,0,5.97-.61,8.56-1.82,2.58-1.21,4.98-2.67,7.19-4.37Z"/>
    <path class="cls-11" d="m644.42,85.92c-3.38,0-11.68-4.44-24.06,5.63v37.49h-8.89v-52.81h8.89v7.8c9.76-7.84,15.09-8.66,24.06-7.23v9.12Z"/>
    <path class="cls-11" d="m693.2,129.03h-8.89v-5.53c-15.65,13.53-37.58,8.13-37.58-20.47,0-20.94,14.96-31.71,30.82-27.4,2.14.58,4.4,1.49,6.76,2.72v-22.88h8.89v73.56Zm-8.89-13v-30.3c-15.77-7.05-28.41-1.64-28.41,17.11,0,10.66,2.87,19.19,13.52,19.19,5.33,0,10.74-2.73,14.89-6Z"/>
    <path class="cls-8" d="m794.44,129.03h-9.36v-34.46h-35.13v34.46h-9.36V58.64h9.36v27.61h35.13v-27.61h9.36v70.39Z"/>
    <path class="cls-8" d="m848.61,123.03c-8.95,10.11-26.71,9.98-35.53,0-8.88-10.06-8.86-30.71,0-40.78,8.78-9.98,26.54-10.18,35.53,0,4.41,5,8.91,30.72,0,40.78Zm-6.57-35.62c-5.46-6.77-17.06-6.65-22.38,0-5.28,6.6-5.5,23.26.02,30.3,5.4,6.89,16.89,6.9,22.34.05,2.69-3.39,5.38-23.7.02-30.35Z"/>
    <path class="cls-8" d="m898.31,125.68c-8.96,6.94-25,5.34-35.29.19v-9.98h.47c5.31,4,12.59,6.9,19.24,6.9,6.27,0,12.48-1.58,12.48-7.85,0-5.03-3.37-6.28-8.7-7.47-9.36-2.11-23.26-2.72-23.26-16.4,0-10.76,10.28-16.12,21.32-16.12,6.55,0,13.54,1.87,17.63,3.97v9.5h-.47c-6.77-4.98-18.69-8.18-26.05-4.09-4.63,2.58-3.92,8.35-1.32,10.47,5.87,4.89,19.52,2.5,26.57,9.74,2.24,2.33,5.26,15.03-2.63,21.13Z"/>
    <path class="cls-8" d="m942.01,128.56c-16.44,4.34-27.23.22-27.23-16.78v-28.08h-6v-7.47h6v-15.17h8.89v15.17h18.34v7.47h-18.34c0,23.74-.07,27.31.19,30.56.22,2.76,1.55,5.88,4.18,7.14,3.57,1.71,9.84.67,13.5-.83h.47v7.99Z"/>
    <path class="cls-8" d="m959.87,67.39h-10.02v-9.22h10.02v9.22Zm-.57,61.65h-8.89v-52.81h8.89v52.81Z"/>
    <path class="cls-8" d="m1018.62,129.03h-8.89c0-33.31,1.53-41.82-5.39-44.84-6.82-2.98-15.08.89-20.99,5.41v39.43h-8.89v-52.81h8.89v5.86c14.81-12.28,35.27-10.14,35.27,12.67v34.27Z"/>
    <path class="cls-8" d="m1070.05,142.74c-7.98,8.23-23.96,7.07-34.84,4.02v-9.08h.47c6.68,2.62,17.14,4.73,23.87,2.27,8.2-2.99,7.7-10.36,7.7-18.11-6.35,5.08-10.55,6.38-17.02,6.38s-11.31-2.28-15.01-6.83c-8.43-10.37-8.95-37.12,9.05-44.77,6.94-2.95,14.67-2.68,22.98,1.87l.57-2.27h8.32c0,47.33,1.88,58.28-6.1,66.52Zm-2.79-28.22v-28.79c-8.22-3.73-18.34-4.92-24.2,1.94-5.91,6.9-5.04,21.94-1.09,27.75,5.03,7.4,17.51,5.08,25.29-.9Z"/>
  </g>
</svg>