<?xml version="1.0" encoding="UTF-8"?>
<svg id="Laag_1" data-name="Laag 1" xmlns="http://www.w3.org/2000/svg" viewBox="0 0 997.8 798.65">
  <defs>
    <style>
      .cls-1 {
        fill: #646463;
      }

      .cls-1, .cls-2, .cls-3, .cls-4, .cls-5, .cls-6 {
        isolation: isolate;
      }

      .cls-7 {
        fill: #d8dada;
      }

      .cls-2, .cls-6 {
        fill: #757577;
      }

      .cls-8 {
        fill: #727173;
      }

      .cls-9, .cls-3 {
        fill: #b0b0b3;
      }

      .cls-10 {
        fill: #79b551;
      }

      .cls-11 {
        fill: #89c05f;
      }

      .cls-3 {
        opacity: .86;
      }

      .cls-3, .cls-4, .cls-12, .cls-13, .cls-5, .cls-6 {
        fill-rule: evenodd;
      }

      .cls-14 {
        fill: #f2f2f3;
      }

      .cls-4 {
        fill: #d7d9d9;
        opacity: 1;
      }

      .cls-12 {
        fill: #797a7a;
      }

      .cls-13 {
        fill: #afb3b0;
      }

      .cls-15 {
        fill: #d9dbdb;
      }

      .cls-5 {
        fill: #f0f0f1;
        opacity: .87;
      }

      .cls-6 {
        opacity: .87;
      }
    </style>
  </defs>
  <g>
    <path class="cls-10" d="m411.5,66.18c-80.19,8.5-153.06,35.46-218.61,80.89-4.06,242.58,95.03,429.12,297.26,559.61V61.05c-25.82.01-52.03,1.71-78.64,5.14Z"/>
    <path class="cls-11" d="m488.56,61.05v645.64s.04.03.06.04c197.75-133.11,296.85-319.66,297.32-559.65-92.41-57.41-191.54-86.07-297.38-86.02Z"/>
    <path class="cls-5" d="m793.91,141.91c-4.34-.75-7.25.71-8.74,4.37-114.95-71.42-240.28-98.38-376.02-80.89-80.19,8.5-153.06,35.46-218.61,80.89-2.92-2.92-5.83-5.83-8.74-8.74,167.12-132.39,487.87-104.12,612.12,4.37Z"/>
    <path class="cls-4" d="m409.15,65.4c-80.19,8.49-153.06,35.46-218.62,80.89-4.06,242.6,95.05,429.16,297.32,559.65,197.74-133.1,296.85-319.66,297.32-559.65-114.94-71.43-240.29-98.39-376.01-80.89Zm78.7,601.19c-40.89-31.73-82.86-67.09-118.54-106.05-96.77-115.16-144.32-248.25-142.64-399.27v-.02c82.95-45.74,170.32-67.88,262.09-66.44,91.78-.56,178.92,22.44,261.43,68.96h.02l-.02.02c.23,151.03-48.59,283.66-146.47,397.88-36.05,38.62-74.67,73.6-115.87,104.93Z"/>
    <path class="cls-6" d="m181.79,137.54c2.92,2.92,5.83,5.83,8.74,8.74-4.06,242.61,95.04,429.16,297.32,559.65v17.49C274.79,585.86,172.76,390.56,181.79,137.54Z"/>
    <path class="cls-3" d="m793.91,141.91c7.1,212.58-70.14,388.2-231.73,526.86-24.24,19.17-49.02,37.39-74.33,54.65v-17.49c197.75-133.11,296.85-319.66,297.32-559.65,1.5-3.66,4.41-5.12,8.74-4.37Z"/>
    <path class="cls-12" d="m758.93,155.03c0,5.82-2.92,8.73-8.73,8.73h-.02c-82.51-46.52-169.64-69.51-261.43-68.96-91.77-1.43-179.13,20.71-262.09,66.44h-.02c-5.74-.05-8.64-2.93-8.64-8.64v-.18c83.79-48.13,174.06-70.64,270.79-67.57,96.77-2.15,186.82,21.25,270.13,70.18Z"/>
    <path class="cls-13" d="m487.85,675.34v-8.75c41.2-31.32,79.82-66.31,115.87-104.93,97.88-114.22,146.7-246.84,146.47-397.88l.02-.02,8.73-8.73c3.26,222.31-87.11,395.75-271.08,520.3Z"/>
    <path class="cls-13" d="m487.85,666.59v8.75c-182.73-126.3-275.19-300.56-269.83-522.73v-.18l8.64,8.83h.02v.02c-1.68,151.02,45.88,284.11,142.64,399.27,35.68,38.96,77.65,74.33,118.54,106.05Z"/>
  </g>
  <g>
    <g>
      <rect class="cls-7" x="392.51" y="299.3" width="189.73" height="200.55"/>
      <path class="cls-14" d="m570.32,218.31v69.49h-40.87v-69.49c0-29.64-81.11-28.35-81.11,0v69.49h-40.86v-69.49c0-87.49,162.84-91,162.84,0Z"/>
      <path class="cls-9" d="m425.96,218.31v83.63h22.38v-83.63c0-28.49,81.11-29.56,81.11,0v83.63h22.39v-83.63c0-67.28-125.87-62.37-125.87,0Z"/>
      <path class="cls-8" d="m439.1,218.31v76.69h9.24v-76.69c0-28.49,81.11-29.56,81.11,0v76.69h9.24v-76.69c0-41.17-99.59-41.17-99.59,0Z"/>
      <path class="cls-15" d="m571.86,313.54c1.92,1.92,3.01,4.53,3.01,7.25l.09,162.06c0,3.9-2.18,7.29-5.38,9.03l21.09,19.62c4.54-4.23,7.4-10.25,7.4-16.95v-187.17c0-6.16-2.42-11.75-6.34-15.9l-21.22,20.93c.48.34.94.71,1.36,1.13Z"/>
      <path class="cls-14" d="m414.41,310.62l150.19-.08c2.12,0,4.18.67,5.89,1.87l21.22-20.93c-4.23-4.48-10.21-7.3-16.86-7.3h-172.74c-6.97,0-13.21,3.09-17.46,7.96l23.32,20.77c1.76-1.42,4-2.28,6.44-2.28Z"/>
      <path class="cls-8" d="m569.57,491.87c-1.45.78-3.1,1.23-4.86,1.23l-150.19.08c-2.67,0-5.23-1.04-7.15-2.9l-21.68,22.68c3.43,2.97,7.9,4.78,12.79,4.78h176.38c6.11,0,11.66-2.38,15.8-6.25l-21.09-19.62Z"/>
      <path class="cls-9" d="m407.26,490.19c-1.92-1.92-3.01-4.53-3.01-7.25l-.09-162.06c0-3.22,1.49-6.1,3.81-7.98l-23.32-20.77c-3.56,4.08-5.73,9.4-5.73,15.24v190.8c0,5.91,2.63,11.19,6.77,14.78l21.68-22.68s-.07-.06-.11-.1Z"/>
      <polygon class="cls-14" points="404.17 320.17 575.18 404.94 575.18 447.01 404.27 357.16 404.17 320.17"/>
      <polygon class="cls-14" points="404.2 372.8 575.18 458.7 575.34 483.28 404.1 396.42 404.2 372.8"/>
    </g>
    <g>
      <path class="cls-1" d="m506.99,390.71c-.98,1.02-2.03,1.96-3.1,2.81v63.26h-33.95v-62.21c-1.59-1.11-3.1-2.4-4.49-3.86-11.47-12.02-11.47-31.49,0-43.48,11.47-12.02,30.07-12.02,41.54,0,11.45,11.99,11.45,31.47,0,43.48Z"/>
      <path class="cls-2" d="m511.53,390.94c-.98,1.02-2.03,1.96-3.1,2.81v63.26h-33.95v-62.21c-1.59-1.11-3.1-2.4-4.49-3.86-11.47-12.02-11.47-31.49,0-43.48,11.47-12.02,30.07-12.02,41.54,0,11.45,11.99,11.45,31.47,0,43.48Z"/>
    </g>
  </g>
</svg>