<?xml version="1.0" encoding="UTF-8"?>
<svg id="Laag_1" data-name="Laag 1" xmlns="http://www.w3.org/2000/svg" viewBox="0 0 1275.59 798.65">
  <defs>
    <style>
      .cls-1 {
        fill: #646463;
      }

      .cls-1, .cls-2, .cls-3, .cls-4, .cls-5, .cls-6 {
        isolation: isolate;
      }

      .cls-7 {
        fill: #d8dada;
      }

      .cls-2, .cls-6 {
        fill: #757577;
      }

      .cls-8 {
        fill: #afafb2;
      }

      .cls-9 {
        fill: #727173;
      }

      .cls-10, .cls-3 {
        fill: #b0b0b3;
      }

      .cls-11 {
        fill: #79b551;
      }

      .cls-12 {
        fill: #89c05f;
      }

      .cls-3 {
        opacity: .86;
      }

      .cls-3, .cls-4, .cls-13, .cls-14, .cls-5, .cls-6 {
        fill-rule: evenodd;
      }

      .cls-15 {
        fill: #f2f2f3;
      }

      .cls-4 {
        fill: #d7d9d9;
        opacity: 1;
      }

      .cls-13 {
        fill: #797a7a;
      }

      .cls-14 {
        fill: #afb3b0;
      }

      .cls-16 {
        fill: #d9dbdb;
      }

      .cls-5 {
        fill: #f0f0f1;
        opacity: .87;
      }

      .cls-6 {
        opacity: .87;
      }
    </style>
  </defs>
  <g>
    <g>
      <path class="cls-11" d="m588.2,104.55c-49.92,5.29-95.29,22.08-136.11,50.36-2.53,151.03,59.16,267.16,185.07,348.41V101.35c-16.07,0-32.39,1.06-48.96,3.2Z"/>
      <path class="cls-12" d="m636.18,101.35v401.96s.02.02.04.02c123.11-82.87,184.81-199.01,185.1-348.43-57.53-35.75-119.25-53.59-185.14-53.56Z"/>
      <path class="cls-5" d="m826.28,151.7c-2.7-.47-4.51.44-5.44,2.72-71.56-44.46-149.6-61.25-234.1-50.36-49.92,5.29-95.29,22.08-136.11,50.36-1.82-1.81-3.63-3.63-5.44-5.44,104.05-82.42,303.74-64.82,381.1,2.72Z"/>
      <path class="cls-4" d="m586.74,104.06c-49.93,5.28-95.29,22.08-136.11,50.36-2.53,151.04,59.18,267.18,185.1,348.43,123.11-82.87,184.82-199.01,185.1-348.43-71.56-44.47-149.6-61.25-234.1-50.36Zm48.99,374.29c-25.46-19.75-51.59-41.77-73.8-66.03-60.24-71.7-89.85-154.55-88.81-248.58h0c51.65-28.48,106.04-42.27,163.17-41.38,57.14-.35,111.39,13.97,162.76,42.93h0,0c.14,94.04-30.25,176.61-91.19,247.72-22.44,24.05-46.49,45.82-72.14,65.33Z"/>
      <path class="cls-6" d="m445.19,148.97c1.82,1.81,3.63,3.63,5.44,5.44-2.53,151.04,59.17,267.19,185.1,348.43v10.89c-132.65-85.65-196.17-207.24-190.55-364.76Z"/>
      <path class="cls-3" d="m826.28,151.7c4.42,132.35-43.67,241.69-144.27,328.01-15.09,11.93-30.52,23.28-46.28,34.03v-10.89c123.11-82.87,184.81-199.01,185.1-348.43.93-2.28,2.74-3.19,5.44-2.72Z"/>
      <path class="cls-13" d="m804.51,159.87c0,3.62-1.82,5.44-5.44,5.44h0c-51.37-28.96-105.62-43.28-162.76-42.93-57.13-.89-111.53,12.89-163.17,41.37h0c-3.57-.03-5.38-1.83-5.38-5.38v-.12c52.17-29.96,108.36-43.98,168.59-42.07,60.24-1.34,116.31,13.23,168.18,43.69Z"/>
      <path class="cls-14" d="m635.73,483.8v-5.45c25.65-19.5,49.7-41.28,72.14-65.33,60.94-71.11,91.33-153.68,91.19-247.71h0s5.44-5.45,5.44-5.45c2.03,138.41-54.23,246.39-168.77,323.93Z"/>
      <path class="cls-14" d="m635.73,478.35v5.45c-113.76-78.63-171.33-187.12-167.99-325.44v-.12l5.38,5.5h0c-1.05,94.03,28.56,176.89,88.81,248.59,22.21,24.26,48.34,46.28,73.8,66.03Z"/>
    </g>
    <g>
      <g>
        <rect class="cls-7" x="576.38" y="249.68" width="118.12" height="124.86"/>
        <path class="cls-15" d="m687.08,199.26v43.26h-25.45v-43.26c0-18.45-50.5-17.65-50.5,0v43.26h-25.44v-43.26c0-54.47,101.38-56.66,101.38,0Z"/>
        <path class="cls-10" d="m597.2,199.26v52.07h13.93v-52.07c0-17.74,50.5-18.41,50.5,0v52.07h13.94v-52.07c0-41.88-78.37-38.83-78.37,0Z"/>
        <path class="cls-9" d="m605.38,199.26v47.75h5.75v-47.75c0-17.74,50.5-18.41,50.5,0v47.75h5.75v-47.75c0-25.63-62-25.63-62,0Z"/>
        <path class="cls-16" d="m688.03,258.55c1.2,1.2,1.87,2.82,1.87,4.51l.06,100.89c0,2.43-1.35,4.54-3.35,5.62l13.13,12.22c2.83-2.64,4.61-6.38,4.61-10.55v-116.53c0-3.84-1.51-7.31-3.95-9.9l-13.21,13.03c.3.21.58.44.85.7Z"/>
        <path class="cls-15" d="m590.01,256.73l93.51-.05c1.32,0,2.6.41,3.67,1.16l13.21-13.03c-2.63-2.79-6.36-4.54-10.5-4.54h-107.55c-4.34,0-8.22,1.92-10.87,4.96l14.52,12.93c1.1-.89,2.49-1.42,4.01-1.42Z"/>
        <path class="cls-9" d="m686.61,369.58c-.9.49-1.93.77-3.03.77l-93.51.05c-1.66,0-3.26-.65-4.45-1.81l-13.5,14.12c2.14,1.85,4.92,2.98,7.96,2.98h109.81c3.81,0,7.26-1.48,9.84-3.89l-13.13-12.22Z"/>
        <path class="cls-10" d="m585.56,368.53c-1.2-1.2-1.87-2.82-1.87-4.51l-.05-100.89c0-2.01.93-3.8,2.37-4.97l-14.52-12.93c-2.22,2.54-3.57,5.85-3.57,9.49v118.79c0,3.68,1.64,6.97,4.22,9.2l13.5-14.12s-.04-.04-.07-.06Z"/>
        <polygon class="cls-15" points="583.63 262.68 690.1 315.46 690.1 341.64 583.7 285.71 583.63 262.68"/>
        <polygon class="cls-15" points="583.66 295.45 690.1 348.92 690.2 364.23 583.59 310.15 583.66 295.45"/>
      </g>
      <g>
        <path class="cls-1" d="m647.65,306.59c-.61.64-1.26,1.22-1.93,1.75v39.38h-21.14v-38.73c-.99-.69-1.93-1.49-2.8-2.4-7.14-7.48-7.14-19.6,0-27.07,7.14-7.48,18.72-7.48,25.86,0,7.13,7.47,7.13,19.59,0,27.07Z"/>
        <path class="cls-2" d="m650.48,306.74c-.61.64-1.26,1.22-1.93,1.75v39.38h-21.14v-38.73c-.99-.69-1.93-1.49-2.8-2.4-7.14-7.48-7.14-19.6,0-27.07,7.14-7.48,18.72-7.48,25.86,0,7.13,7.47,7.13,19.59,0,27.07Z"/>
      </g>
    </g>
  </g>
  <g>
    <path class="cls-11" d="m106.95,659.54c-3.93,8.24-11.32,13.25-19.83,16.13-11.89,4.02-32.36,3.85-53.39-5.49v-16.4h.93c10.22,8.5,24.53,12.96,35.64,12.96,12.39,0,25.72-4.34,25.72-16.73,0-15.38-13.9-14.33-35.97-18.84-15.55-3.3-25.72-11.08-25.72-26.97,0-28.71,40.42-34.76,71.34-21.29v15.47h-.92c-11.91-10.09-37.69-15.38-50.41-6.68-8.32,5.69-7.56,16.09-3.21,20.89,4.49,4.96,15.04,6.22,23.21,7.6,10.4,1.77,22.57,3.89,29.75,11.5,3.7,3.92,7.6,17.91,2.88,27.83Z"/>
    <path class="cls-11" d="m183.67,676.27h-12.36v-7.87c-6.69,4.55-12.7,9.92-26.51,9.92-12.87,0-23.87-9.28-23.87-23.47,0-24.89,25.51-26.16,50.38-27.37,0-9.94-2.75-15.87-19.83-15.87-7.59,0-16.28,2.33-23.34,5.03h-.66v-12.63c13.62-3.71,36.26-6.06,47.67,2.31,6.47,4.72,8.53,11.84,8.53,19.84v50.11Zm-12.36-18.18v-20.56c-16.96.99-37.55.94-37.55,16.46,0,9.4,6.25,12.76,15.54,12.76,4.36,0,8.35-.85,11.97-2.55,3.61-1.7,6.96-3.74,10.05-6.12Z"/>
    <path class="cls-11" d="m243.95,585.42h-.66c-2.67-.77-7.78-1.85-11.17-1.85-13.48,0-15.21,6.74-15.21,18.84h22.41v10.45h-22.02v63.4h-12.43v-63.4h-8.4v-10.45h8.4c0-25.75,13.77-33.17,39.07-28.36v11.37Z"/>
    <path class="cls-11" d="m310.25,640.63h-54.41c0,33.52,38.27,30.18,52.3,17.59h.66v13.55c-26.24,11.06-45.53,5.67-55.27-3.74-13.97-13.47-13.64-42.8-.43-57.02,13.49-14.53,38.35-13.45,49.06-1.92,8.45,9.1,8.1,20.77,8.1,31.54Zm-12.1-9.52c-.09-13-6.44-20.5-19.7-20.5s-21.58,9.11-22.61,20.5h42.31Z"/>
    <path class="cls-11" d="m408.81,668.99c-18.5,8.49-37.87,12.41-57.19,6.02-37.61-12.45-37.74-64.54-16.76-85.32,18.15-17.98,48.87-16.72,73.88-4.79v15.54h-1.19c-30.75-23.79-72.86-16.6-72.86,26.12,0,30.53,20.36,44.98,50.08,39.07,4.21-.84,7.9-1.92,11.07-3.24v-24.13h-26.38v-11.5h39.34v42.25Z"/>
    <path class="cls-11" d="m488.54,676.27h-12.43v-8.2c-7.85,6.19-15.05,10.25-24.73,10.25-16.7,0-24.59-11-24.59-27.97v-47.93h12.43c0,47.82-1.96,58.39,7.41,62.74,9.01,4.2,21.27-1.14,29.49-7.6v-55.14h12.43v73.85Z"/>
    <path class="cls-11" d="m567,676.27h-12.36v-7.87c-6.69,4.55-12.7,9.92-26.51,9.92-26.13,0-33.09-34.93-9.98-45.22,9.78-4.32,24.33-5.02,36.49-5.62,0-5.36-.39-10.22-5.75-13.29-9.16-5.26-26.35-1.78-37.42,2.45h-.66v-12.63c2.42-.66,5.93-1.39,10.51-2.18,23.76-4.11,45.69.09,45.69,24.33v50.11Zm-12.36-18.18v-20.56c-16.96.99-37.55.94-37.55,16.46,0,9.4,6.25,12.76,15.54,12.76,4.36,0,8.35-.85,11.97-2.55,3.61-1.7,6.96-3.74,10.05-6.12Z"/>
    <path class="cls-11" d="m633.63,615.97c-4.72,0-16.33-6.21-33.65,7.87v52.43h-12.43v-73.85h12.43v10.91c13.64-10.97,21.11-12.11,33.65-10.12v12.76Z"/>
    <path class="cls-11" d="m701.85,676.27h-12.43v-7.74c-21.89,18.92-52.56,11.37-52.56-28.63,0-29.28,20.92-44.35,43.11-38.31,3,.82,6.15,2.08,9.45,3.8v-32h12.43v102.88Zm-12.43-18.18v-42.38c-22.05-9.86-39.74-2.29-39.74,23.93,0,14.9,4.01,26.84,18.91,26.84,7.45,0,15.03-3.82,20.83-8.4Z"/>
    <path class="cls-8" d="m843.44,676.27h-13.09v-48.2h-49.12v48.2h-13.09v-98.45h13.09v38.61h49.12v-38.61h13.09v98.45Z"/>
    <path class="cls-8" d="m919.19,667.87c-12.52,14.13-37.36,13.96-49.68,0-12.42-14.06-12.4-42.94,0-57.03,12.28-13.96,37.11-14.23,49.68,0,6.17,6.99,12.46,42.96,0,57.03Zm-9.19-49.82c-7.63-9.47-23.86-9.3-31.31,0-7.39,9.23-7.69,32.53.03,42.38,7.55,9.64,23.62,9.65,31.24.07,3.77-4.74,7.52-33.15.03-42.44Z"/>
    <path class="cls-8" d="m988.7,671.57c-12.53,9.71-34.96,7.47-49.35.26v-13.95h.66c7.43,5.6,17.61,9.65,26.91,9.65,8.77,0,17.45-2.21,17.45-10.98,0-7.03-4.72-8.79-12.17-10.45-13.09-2.95-32.53-3.8-32.53-22.94,0-15.05,14.37-22.55,29.82-22.55,9.16,0,18.94,2.61,24.66,5.55v13.29h-.66c-9.47-6.97-26.14-11.44-36.43-5.72-6.48,3.6-5.49,11.68-1.85,14.64,8.2,6.84,27.3,3.49,37.16,13.62,3.13,3.26,7.35,21.02-3.67,29.55Z"/>
    <path class="cls-8" d="m1049.81,675.61c-22.99,6.07-38.08.31-38.08-23.47v-39.27h-8.4v-10.45h8.4v-21.22h12.43v21.22h25.65v10.45h-25.65c0,33.2-.1,38.19.26,42.74.31,3.86,2.17,8.22,5.85,9.98,4.99,2.4,13.75.94,18.88-1.16h.66v11.17Z"/>
    <path class="cls-8" d="m1074.79,590.05h-14.01v-12.89h14.01v12.89Zm-.79,86.21h-12.43v-73.85h12.43v73.85Z"/>
    <path class="cls-8" d="m1156.96,676.27h-12.43c0-46.58,2.14-58.49-7.54-62.71-9.54-4.16-21.09,1.24-29.36,7.57v55.14h-12.43v-73.85h12.43v8.2c20.71-17.17,49.32-14.19,49.32,17.72v47.93Z"/>
    <path class="cls-8" d="m1228.88,695.44c-11.16,11.51-33.51,9.89-48.73,5.62v-12.69h.66c9.34,3.66,23.96,6.61,33.39,3.17,11.47-4.19,10.78-14.49,10.78-25.32-8.88,7.11-14.76,8.93-23.8,8.93s-15.81-3.18-20.99-9.55c-11.79-14.5-12.52-51.92,12.66-62.61,9.71-4.12,20.52-3.75,32.13,2.61l.79-3.17h11.64c0,66.19,2.64,81.51-8.53,93.02Zm-3.9-39.47v-40.26c-11.5-5.21-25.64-6.88-33.85,2.71-8.26,9.65-7.05,30.68-1.52,38.81,7.04,10.35,24.49,7.11,35.37-1.26Z"/>
  </g>
</svg>